<svg aria-hidden="true" style="position: absolute; width: 0; height: 0; overflow: hidden;" version="1.1" xmlns="http://www.w3.org/2000/svg" xmlns:xlink="http://www.w3.org/1999/xlink">
    <defs>
        <symbol id="icon-insta" viewBox="0 0 35 32">
            <path d="M25.587 0.184h-16.503c-4.559 0-8.268 3.709-8.268 8.268v15.098c0 4.559 3.709 8.268 8.268 8.268h16.503c4.559 0 8.268-3.709 8.268-8.268v-15.098c0-4.559-3.709-8.268-8.268-8.268zM3.733 8.452c0-2.95 2.401-5.351 5.351-5.351h16.503c2.95 0 5.351 2.401 5.351 5.351v15.098c0 2.95-2.401 5.351-5.351 5.351h-16.503c-2.95 0-5.351-2.401-5.351-5.351v-15.098z"></path>
            <path d="M17.335 23.691c4.24 0 7.691-3.449 7.691-7.691s-3.449-7.691-7.691-7.691c-4.242 0-7.691 3.449-7.691 7.691s3.449 7.691 7.691 7.691zM17.335 11.228c2.633 0 4.774 2.141 4.774 4.774s-2.141 4.774-4.774 4.774c-2.633 0-4.774-2.141-4.774-4.774s2.141-4.774 4.774-4.774z"></path>
            <path d="M25.739 9.549c1.142 0 2.072-0.929 2.072-2.072s-0.929-2.072-2.072-2.072c-1.143 0-2.072 0.929-2.072 2.072s0.929 2.072 2.072 2.072z"></path>
        </symbol>
        <symbol id="icon-phone" viewBox="0 0 32 32">
            <path d="M31.93 24.795c-0.091-0.273-0.666-0.675-1.727-1.204-0.287-0.167-0.697-0.394-1.227-0.682s-1.012-0.553-1.443-0.796c-0.432-0.242-0.837-0.477-1.216-0.704-0.061-0.045-0.25-0.178-0.568-0.398s-0.587-0.383-0.807-0.489c-0.22-0.106-0.436-0.159-0.648-0.159-0.303 0-0.681 0.216-1.136 0.648s-0.871 0.901-1.25 1.409c-0.379 0.508-0.78 0.977-1.204 1.409s-0.773 0.648-1.046 0.648c-0.137 0-0.307-0.038-0.512-0.113s-0.36-0.141-0.466-0.193c-0.106-0.053-0.287-0.159-0.545-0.319s-0.402-0.246-0.432-0.262c-2.076-1.152-3.856-2.47-5.341-3.954s-2.803-3.265-3.954-5.341c-0.015-0.030-0.102-0.174-0.261-0.432s-0.265-0.439-0.318-0.546c-0.053-0.106-0.117-0.261-0.193-0.466s-0.114-0.375-0.114-0.511c0-0.273 0.216-0.621 0.648-1.046s0.902-0.826 1.409-1.204c0.508-0.379 0.977-0.795 1.409-1.25s0.648-0.833 0.648-1.136c0-0.212-0.053-0.428-0.159-0.648s-0.269-0.489-0.489-0.807c-0.22-0.318-0.352-0.507-0.398-0.568-0.227-0.378-0.462-0.784-0.704-1.216s-0.508-0.913-0.796-1.443c-0.288-0.53-0.515-0.939-0.682-1.227-0.53-1.060-0.931-1.636-1.204-1.727-0.106-0.045-0.265-0.068-0.477-0.068-0.409 0-0.943 0.076-1.602 0.227s-1.178 0.31-1.557 0.477c-0.758 0.318-1.561 1.242-2.409 2.772-0.773 1.424-1.159 2.833-1.159 4.227 0 0.409 0.026 0.806 0.080 1.193s0.148 0.822 0.284 1.307c0.136 0.485 0.246 0.845 0.329 1.079s0.238 0.655 0.466 1.261c0.227 0.606 0.364 0.977 0.409 1.114 0.53 1.485 1.159 2.811 1.886 3.977 1.196 1.939 2.829 3.943 4.897 6.012s4.072 3.701 6.011 4.898c1.167 0.727 2.493 1.356 3.977 1.886 0.136 0.045 0.507 0.181 1.113 0.409s1.027 0.383 1.261 0.466c0.235 0.083 0.595 0.193 1.079 0.33s0.921 0.231 1.307 0.285c0.387 0.052 0.784 0.079 1.193 0.079 1.394 0 2.803-0.387 4.227-1.159 1.53-0.848 2.454-1.651 2.772-2.409 0.167-0.378 0.326-0.897 0.477-1.557s0.227-1.193 0.227-1.602c0-0.213-0.022-0.372-0.068-0.479z"></path>
        </symbol>
        <symbol id="icon-telegram" viewBox="0 0 40 32">
            <path d="M2.401 14.197c0.085-0.043 0.171-0.083 0.254-0.122 1.448-0.671 2.915-1.298 4.38-1.926 0.079 0 0.211-0.092 0.286-0.122 0.113-0.049 0.226-0.096 0.34-0.145 0.218-0.094 0.436-0.186 0.651-0.28 0.436-0.186 0.869-0.372 1.305-0.557l2.607-1.117c1.738-0.743 3.479-1.488 5.217-2.232s3.479-1.488 5.217-2.232c1.738-0.743 3.479-1.488 5.217-2.232s3.479-1.488 5.217-2.232c0.387-0.167 0.805-0.414 1.219-0.487 0.348-0.062 0.688-0.181 1.038-0.248 0.664-0.126 1.397-0.177 2.033 0.098 0.22 0.096 0.423 0.231 0.592 0.399 0.807 0.799 0.694 2.11 0.523 3.233-1.189 7.829-2.379 15.659-3.57 23.488-0.162 1.074-0.384 2.253-1.232 2.932-0.718 0.574-1.738 0.638-2.624 0.395-0.886-0.245-1.668-0.76-2.434-1.266-3.18-2.106-6.361-4.211-9.541-6.317-0.756-0.5-1.597-1.153-1.589-2.061 0.004-0.547 0.331-1.034 0.664-1.467 2.763-3.605 6.75-6.082 9.716-9.52 0.419-0.485 0.747-1.36 0.173-1.64-0.342-0.167-0.735 0.060-1.046 0.275-3.921 2.723-7.839 5.448-11.76 8.17-1.279 0.888-2.62 1.802-4.162 2.020-1.38 0.197-2.768-0.188-4.102-0.581-1.119-0.329-2.236-0.666-3.348-1.014-0.592-0.184-1.202-0.382-1.659-0.799s-0.72-1.117-0.444-1.672c0.173-0.348 0.508-0.568 0.861-0.747l0.004 0.002z"></path>
        </symbol>
        <symbol id="icon-facebook" viewBox="0 0 19 32">
            <path d="M12.164 7.289v4.497h5.563l-0.881 6.058h-4.683v13.958c-0.939 0.13-1.899 0.198-2.874 0.198-1.125 0-2.231-0.090-3.307-0.263v-13.893h-5.131v-6.058h5.131v-5.503c0-3.414 2.767-6.183 6.183-6.183v0.003c0.010 0 0.019-0.003 0.029-0.003h5.535v5.239h-3.616c-1.075 0-1.947 0.872-1.947 1.947l-0.001 0.001z"></path>
        </symbol>
        <symbol id="icon-pen" viewBox="0 0 32 32">
            <path stroke-linejoin="miter" stroke-linecap="butt" stroke-miterlimit="4" stroke-width="1.8286" d="M3.421 17.984l15.799-15.799c0.229-0.13 1.082-0.55 2.385-0.463 1.361 0.091 3.34 0.746 5.716 3.123s3.031 4.356 3.123 5.716c0.087 1.303-0.333 2.156-0.463 2.385l-15.799 15.799-12.562 1.802 1.802-12.563z"></path>
        </symbol>
        <symbol id="icon-star" viewBox="0 0 32 32">
            <path d="M10.769 4.58c1.647-5.067 8.816-5.067 10.462 0 0.736 2.266 2.848 3.801 5.231 3.801 5.328 0 7.544 6.818 3.233 9.95-1.928 1.401-2.734 3.883-1.998 6.149 1.646 5.068-4.153 9.281-8.464 6.149-1.928-1.401-4.538-1.401-6.466 0-4.311 3.132-10.111-1.082-8.464-6.149 0.736-2.266-0.070-4.749-1.998-6.149-4.311-3.132-2.095-9.95 3.233-9.95 2.383 0 4.495-1.534 5.231-3.801z"></path>
        </symbol>
        <symbol id="icon-logo" viewBox="0 0 62 32">
            <path d="M3.781 16.644h-3.584c-0.108 0-0.196 0.088-0.196 0.196v14.799c0 0.108 0.088 0.196 0.196 0.196h3.584c0.108 0 0.196-0.088 0.196-0.196v-14.799c0-0.108-0.088-0.196-0.196-0.196z"></path>
            <path d="M14.583 29.541l0.255 1.097c0.025 0.106 0.13 0.171 0.236 0.146l3.302-0.773c0.105-0.025 0.171-0.13 0.146-0.235l-3.507-15.062c-0.025-0.106-0.13-0.171-0.236-0.146l-3.344 0.782c-0.105 0.025-0.171 0.13-0.146 0.235l1.359 5.837c-0.325-0.305-0.741-0.535-1.253-0.687-0.751-0.223-1.524-0.241-2.319-0.055-0.907 0.212-1.668 0.626-2.282 1.242s-1.023 1.39-1.225 2.322c-0.202 0.933-0.17 1.973 0.097 3.119 0.271 1.161 0.704 2.107 1.301 2.838s1.304 1.24 2.122 1.528 1.68 0.326 2.587 0.114c0.837-0.196 1.542-0.568 2.113-1.114 0.378-0.361 0.641-0.759 0.793-1.19v0.001zM12.219 28.775c-0.628 0.147-1.196 0.048-1.703-0.299s-0.875-1.009-1.103-1.988c-0.228-0.979-0.191-1.737 0.111-2.272s0.767-0.877 1.395-1.023c0.614-0.144 1.168-0.041 1.661 0.308s0.854 1.014 1.082 1.993c0.228 0.979 0.198 1.735-0.090 2.267s-0.739 0.87-1.353 1.014v-0z"></path>
            <path d="M28.504 25.957c-0.061-0.105-0.201-0.126-0.294-0.048-0.357 0.298-0.741 0.536-1.154 0.715-0.482 0.209-0.999 0.357-1.55 0.446-0.906 0.146-1.624 0.036-2.154-0.329-0.406-0.28-0.699-0.728-0.883-1.342l6.601-1.064c0.107-0.017 0.18-0.118 0.163-0.225l-0.095-0.594c-0.178-1.106-0.513-2.045-1.007-2.817s-1.148-1.339-1.96-1.703c-0.813-0.364-1.764-0.458-2.854-0.282-1.104 0.178-2.027 0.574-2.77 1.189s-1.273 1.384-1.589 2.308c-0.317 0.924-0.386 1.939-0.208 3.045 0.28 1.745 1.042 3.037 2.287 3.876s2.844 1.102 4.796 0.787c0.807-0.13 1.543-0.355 2.211-0.673 0.613-0.292 1.146-0.636 1.602-1.032 0.071-0.062 0.086-0.166 0.039-0.247l-1.179-2.011zM23.761 21.219c0.552-0.089 1.011 0.037 1.378 0.378 0.32 0.298 0.55 0.774 0.689 1.427l-3.641 0.587c-0.026-0.6 0.050-1.087 0.233-1.456 0.257-0.522 0.704-0.834 1.341-0.936l-0 0z"></path>
            <path d="M32.853 29.131c0.716 0.466 1.54 0.7 2.472 0.7 0.831 0 1.587-0.194 2.268-0.582 0.494-0.282 0.864-0.628 1.113-1.039l0.014 1.168c0.001 0.108 0.089 0.194 0.196 0.194h3.415c0.108 0 0.196-0.088 0.196-0.196v-7.777c0-0.488 0.014-0.984 0.043-1.487 0.024-0.429 0.059-0.852 0.105-1.27 0.012-0.116-0.077-0.216-0.194-0.216h-3.305c-0.099 0-0.183 0.074-0.195 0.173l-0.167 1.373c-0.247-0.481-0.638-0.882-1.176-1.2-0.681-0.402-1.451-0.603-2.311-0.603-0.917 0-1.738 0.23-2.461 0.689s-1.29 1.12-1.698 1.982c-0.408 0.862-0.613 1.882-0.613 3.060 0 1.193 0.204 2.212 0.613 3.060s0.971 1.505 1.687 1.972l-0 0zM35.003 21.912c0.401-0.452 0.924-0.679 1.569-0.679s1.168 0.226 1.569 0.679c0.401 0.452 0.602 1.182 0.602 2.187s-0.201 1.735-0.602 2.187c-0.401 0.452-0.924 0.679-1.569 0.679-0.659 0-1.186-0.226-1.58-0.679s-0.591-1.181-0.591-2.187c0-1.005 0.201-1.735 0.602-2.187z"></path>
            <path d="M50.047 28c-0.236 0.165-0.634 0.248-1.193 0.248-0.688 0-1.383-0.1-2.085-0.302-0.621-0.178-1.185-0.4-1.694-0.668-0.105-0.055-0.235-0.008-0.276 0.104l-0.789 2.115c-0.033 0.088 0 0.189 0.081 0.237 0.559 0.334 1.219 0.6 1.98 0.799 0.824 0.215 1.737 0.323 2.741 0.323s1.881-0.151 2.633-0.452c0.752-0.302 1.336-0.729 1.752-1.282s0.624-1.225 0.624-2.015c0-0.847-0.258-1.519-0.774-2.015s-1.24-0.822-2.171-0.981l-2.321-0.388c-0.301-0.072-0.527-0.176-0.677-0.313s-0.226-0.305-0.226-0.506c0-0.273 0.129-0.496 0.387-0.668s0.695-0.259 1.311-0.259c0.516 0 1.071 0.094 1.666 0.28 0.51 0.16 0.964 0.368 1.363 0.623 0.103 0.066 0.241 0.018 0.286-0.096l0.819-2.044c0.034-0.083 0.007-0.18-0.066-0.233-0.519-0.37-1.13-0.646-1.833-0.825-0.76-0.194-1.555-0.291-2.386-0.291-1.003 0-1.877 0.158-2.623 0.474s-1.319 0.751-1.72 1.304c-0.401 0.553-0.602 1.203-0.602 1.95 0 0.819 0.254 1.487 0.763 2.004s1.222 0.862 2.139 1.034l2.321 0.409c0.315 0.043 0.548 0.126 0.698 0.248s0.226 0.298 0.226 0.528c0 0.273-0.118 0.492-0.355 0.657l-0 0z"></path>
            <path d="M30.827 6.729l-4.222 0.295c-0.178-1.197-0.429-2.486-0.779-3.844-0.162-0.629-0.336-1.233-0.516-1.811-0.027-0.087-0.111-0.143-0.202-0.137l-3.563 0.249c-0.127 0.009-0.212 0.133-0.173 0.254 0.591 1.867 1.181 4.338 1.384 7.279 0.204 2.938-0.038 5.463-0.365 7.393-0.021 0.126 0.080 0.237 0.207 0.229l3.564-0.249c0.090-0.006 0.165-0.073 0.18-0.162 0.101-0.596 0.191-1.219 0.265-1.867 0.168-1.474 0.229-2.851 0.222-4.109l4.222-0.295c0.162 1.242 0.409 2.599 0.783 4.039 0.164 0.633 0.341 1.237 0.525 1.812 0.028 0.086 0.111 0.141 0.201 0.135l3.564-0.249c0.127-0.009 0.212-0.133 0.173-0.254-0.591-1.865-1.18-4.333-1.384-7.271-0.205-2.942 0.037-5.47 0.365-7.401 0.021-0.126-0.080-0.237-0.207-0.229l-3.564 0.249c-0.090 0.006-0.165 0.072-0.18 0.162-0.103 0.596-0.194 1.219-0.27 1.868-0.163 1.402-0.228 2.714-0.23 3.915v-0z"></path>
            <path d="M44.34 10.826c0 0.647-0.179 1.167-0.537 1.562s-0.81 0.593-1.354 0.593c-0.473 0-0.831-0.14-1.075-0.42s-0.365-0.707-0.365-1.282v-6.355c0-0.108-0.088-0.196-0.196-0.196h-3.434c-0.108 0-0.196 0.088-0.196 0.196v6.333c0 1.566 0.33 2.737 0.989 3.512s1.691 1.164 3.095 1.164c0.802 0 1.501-0.194 2.096-0.582 0.422-0.275 0.776-0.631 1.064-1.065v1.193c0 0.108 0.088 0.196 0.196 0.196h3.348c0.108 0 0.196-0.088 0.196-0.196v-10.554c0-0.108-0.088-0.196-0.196-0.196h-3.434c-0.108 0-0.196 0.088-0.196 0.196v5.902l0-0z"></path>
            <path d="M61.923 8.775c-0.283-0.908-0.752-1.641-1.407-2.201s-1.444-0.902-2.367-1.026c-0.824-0.111-1.595-0.020-2.314 0.275-0.504 0.206-0.908 0.484-1.218 0.83l0.802-5.971c0.014-0.107-0.061-0.206-0.168-0.221l-3.403-0.459c-0.107-0.015-0.206 0.061-0.221 0.168l-2.058 15.329c-0.014 0.107 0.061 0.206 0.168 0.22l3.36 0.453c0.107 0.015 0.206-0.061 0.221-0.168l0.164-1.221c0.189 0.461 0.505 0.869 0.953 1.222 0.621 0.489 1.35 0.791 2.188 0.904 0.909 0.123 1.756 0.005 2.542-0.353s1.433-0.93 1.944-1.716c0.51-0.786 0.845-1.77 1.004-2.952 0.157-1.167 0.093-2.205-0.189-3.113h0zM57.413 13.451c-0.457 0.388-1.005 0.538-1.644 0.452-0.625-0.084-1.11-0.378-1.454-0.881s-0.45-1.253-0.316-2.25c0.134-0.996 0.433-1.692 0.898-2.086s1.010-0.549 1.635-0.464c0.639 0.086 1.127 0.384 1.463 0.893s0.438 1.262 0.304 2.259c-0.134 0.997-0.429 1.689-0.886 2.076l-0 0z"></path>
        </symbol>
        <symbol id="icon-burger" viewBox="0 0 37 32">
            <path d="M0 2.604c0-0.691 0.275-1.353 0.765-1.841s1.154-0.763 1.847-0.763h31.347c0.693 0 1.357 0.274 1.847 0.763s0.765 1.15 0.765 1.841-0.275 1.353-0.765 1.841c-0.49 0.488-1.154 0.763-1.847 0.763h-31.347c-0.693 0-1.357-0.274-1.847-0.763s-0.765-1.15-0.765-1.841z"></path>
            <path d="M0 15.621c0-0.691 0.275-1.353 0.765-1.841s1.154-0.763 1.847-0.763h31.347c0.693 0 1.357 0.274 1.847 0.763s0.765 1.15 0.765 1.841-0.275 1.353-0.765 1.841c-0.49 0.488-1.154 0.763-1.847 0.763h-31.347c-0.693 0-1.357-0.274-1.847-0.763s-0.765-1.15-0.765-1.841z"></path>
            <path d="M0 28.639c0-0.691 0.275-1.353 0.765-1.841s1.154-0.762 1.847-0.762h31.347c0.693 0 1.357 0.274 1.847 0.762s0.765 1.151 0.765 1.841-0.275 1.353-0.765 1.841c-0.49 0.488-1.154 0.763-1.847 0.763h-31.347c-0.693 0-1.357-0.274-1.847-0.763s-0.765-1.15-0.765-1.841z"></path>
        </symbol>
        <symbol id="icon-cross" viewBox="0 0 32 32">
            <path d="M32 3.223l-3.223-3.223-12.777 12.777-12.777-12.777-3.223 3.223 12.777 12.777-12.777 12.777 3.223 3.223 12.777-12.777 12.777 12.777 3.223-3.223-12.777-12.777 12.777-12.777z"></path>
        </symbol>
    </defs>
</svg>